# xmcd
#
# Track frame offsets:
#	150
#	13015
#	24150
#	35905
#	58847
#	76627
#	96120
#	119165
#	139125
#	150375
#	168032
#	179012
#
# Disc length: 2790 seconds
#
# Revision: 2
# Processed by: cddbd v1.4b42PL1 Copyright (c) Steve Scherf et al.
# Submitted via: audiograbber 1.80
#
DISCID=950ae40c
DTITLE=Klostertaler - Live, jung and stark CD1
DYEAR=1900
DGENRE=
TTITLE0=Drescher Boarischer
TTITLE1=Holz vor der Huett´n
TTITLE2=Haende Hoch
TTITLE3=Eine Frage der Ehre
TTITLE4=Deftig Boarisch
TTITLE5=Heit is Heit
TTITLE6=Freunde der Berge
TTITLE7=An a Wunder hob i g'laubt
TTITLE8=Ohne Berg
TTITLE9=Marmolada
TTITLE10=Mir gehn no lang net ins Bett
TTITLE11=Oh La La
EXTD=
EXTT0=
EXTT1=
EXTT2=
EXTT3=
EXTT4=
EXTT5=
EXTT6=
EXTT7=
EXTT8=
EXTT9=
EXTT10=
EXTT11=
PLAYORDER=
